<svg width="46" height="46" viewBox="0 0 46 46" fill="none" xmlns="http://www.w3.org/2000/svg">
<path d="M23 3.83331C12.42 3.83331 3.83337 12.42 3.83337 23C3.83337 33.58 12.42 42.1666 23 42.1666C33.58 42.1666 42.1667 33.58 42.1667 23C42.1667 12.42 33.58 3.83331 23 3.83331ZM23 11.5C26.6992 11.5 29.7084 14.5091 29.7084 18.2083C29.7084 21.9075 26.6992 24.9166 23 24.9166C19.3009 24.9166 16.2917 21.9075 16.2917 18.2083C16.2917 14.5091 19.3009 11.5 23 11.5ZM23 38.3333C19.1092 38.3333 14.5092 36.7616 11.2317 32.8133C14.5889 30.1793 18.7328 28.7477 23 28.7477C27.2673 28.7477 31.4111 30.1793 34.7684 32.8133C31.4909 36.7616 26.8909 38.3333 23 38.3333Z" fill="#333333"/>
</svg>
