<svg width="107" height="25" viewBox="0 0 107 25" fill="none" xmlns="http://www.w3.org/2000/svg">
<path d="M41.22 19.18C40.46 19.18 39.7 19.1533 38.94 19.1C38.1933 19.06 37.4133 18.9533 36.6 18.78V5.34C37.24 5.22 37.94 5.13333 38.7 5.08C39.46 5.01333 40.1667 4.98 40.82 4.98C41.7 4.98 42.5067 5.04667 43.24 5.18C43.9867 5.3 44.6267 5.51333 45.16 5.82C45.6933 6.12667 46.1067 6.53333 46.4 7.04C46.7067 7.53333 46.86 8.14667 46.86 8.88C46.86 9.98667 46.3267 10.86 45.26 11.5C46.14 11.8333 46.74 12.2867 47.06 12.86C47.38 13.4333 47.54 14.08 47.54 14.8C47.54 16.2533 47.0067 17.3467 45.94 18.08C44.8867 18.8133 43.3133 19.18 41.22 19.18ZM39.64 12.96V16.54C39.8667 16.5667 40.1133 16.5867 40.38 16.6C40.6467 16.6133 40.94 16.62 41.26 16.62C42.1933 16.62 42.9467 16.4867 43.52 16.22C44.0933 15.9533 44.38 15.46 44.38 14.74C44.38 14.1 44.14 13.6467 43.66 13.38C43.18 13.1 42.4933 12.96 41.6 12.96H39.64ZM39.64 10.58H41.16C42.12 10.58 42.8067 10.46 43.22 10.22C43.6333 9.96667 43.84 9.56667 43.84 9.02C43.84 8.46 43.6267 8.06667 43.2 7.84C42.7733 7.61333 42.1467 7.5 41.32 7.5C41.0533 7.5 40.7667 7.50667 40.46 7.52C40.1533 7.52 39.88 7.53333 39.64 7.56V10.58ZM53.8575 16.92C54.1508 16.92 54.4308 16.9133 54.6975 16.9C54.9642 16.8867 55.1775 16.8667 55.3375 16.84V14.58C55.2175 14.5533 55.0375 14.5267 54.7975 14.5C54.5575 14.4733 54.3375 14.46 54.1375 14.46C53.8575 14.46 53.5908 14.48 53.3375 14.52C53.0975 14.5467 52.8842 14.6067 52.6975 14.7C52.5108 14.7933 52.3642 14.92 52.2575 15.08C52.1508 15.24 52.0975 15.44 52.0975 15.68C52.0975 16.1467 52.2508 16.4733 52.5575 16.66C52.8775 16.8333 53.3108 16.92 53.8575 16.92ZM53.6175 8.2C54.4975 8.2 55.2308 8.3 55.8175 8.5C56.4042 8.7 56.8708 8.98667 57.2175 9.36C57.5775 9.73333 57.8308 10.1867 57.9775 10.72C58.1242 11.2533 58.1975 11.8467 58.1975 12.5V18.7C57.7708 18.7933 57.1775 18.9 56.4175 19.02C55.6575 19.1533 54.7375 19.22 53.6575 19.22C52.9775 19.22 52.3575 19.16 51.7975 19.04C51.2508 18.92 50.7775 18.7267 50.3775 18.46C49.9775 18.18 49.6708 17.82 49.4575 17.38C49.2442 16.94 49.1375 16.4 49.1375 15.76C49.1375 15.1467 49.2575 14.6267 49.4975 14.2C49.7508 13.7733 50.0842 13.4333 50.4975 13.18C50.9108 12.9267 51.3842 12.7467 51.9175 12.64C52.4508 12.52 53.0042 12.46 53.5775 12.46C53.9642 12.46 54.3042 12.48 54.5975 12.52C54.9042 12.5467 55.1508 12.5867 55.3375 12.64V12.36C55.3375 11.8533 55.1842 11.4467 54.8775 11.14C54.5708 10.8333 54.0375 10.68 53.2775 10.68C52.7708 10.68 52.2708 10.72 51.7775 10.8C51.2842 10.8667 50.8575 10.9667 50.4975 11.1L50.1175 8.7C50.2908 8.64667 50.5042 8.59333 50.7575 8.54C51.0242 8.47333 51.3108 8.42 51.6175 8.38C51.9242 8.32667 52.2442 8.28667 52.5775 8.26C52.9242 8.22 53.2708 8.2 53.6175 8.2ZM60.3922 13.74C60.3922 12.98 60.5122 12.2667 60.7522 11.6C61.0055 10.92 61.3655 10.3333 61.8322 9.84C62.2989 9.33333 62.8655 8.93333 63.5322 8.64C64.1989 8.34667 64.9589 8.2 65.8122 8.2C66.3722 8.2 66.8855 8.25333 67.3522 8.36C67.8189 8.45333 68.2722 8.59333 68.7122 8.78L68.0922 11.16C67.8122 11.0533 67.5055 10.96 67.1722 10.88C66.8389 10.8 66.4655 10.76 66.0522 10.76C65.1722 10.76 64.5122 11.0333 64.0722 11.58C63.6455 12.1267 63.4322 12.8467 63.4322 13.74C63.4322 14.6867 63.6322 15.42 64.0322 15.94C64.4455 16.46 65.1589 16.72 66.1722 16.72C66.5322 16.72 66.9189 16.6867 67.3322 16.62C67.7455 16.5533 68.1255 16.4467 68.4722 16.3L68.8922 18.74C68.5455 18.8867 68.1122 19.0133 67.5922 19.12C67.0722 19.2267 66.4989 19.28 65.8722 19.28C64.9122 19.28 64.0855 19.14 63.3922 18.86C62.6989 18.5667 62.1255 18.1733 61.6722 17.68C61.2322 17.1867 60.9055 16.6067 60.6922 15.94C60.4922 15.26 60.3922 14.5267 60.3922 13.74ZM73.8722 12.28C74.1655 11.96 74.4655 11.6267 74.7722 11.28C75.0922 10.9333 75.3989 10.5933 75.6922 10.26C75.9855 9.91333 76.2589 9.58667 76.5122 9.28C76.7789 8.97333 77.0055 8.70667 77.1922 8.48H80.7322C80.0255 9.29333 79.3322 10.0733 78.6522 10.82C77.9855 11.5533 77.2522 12.3133 76.4522 13.1C76.8522 13.46 77.2655 13.8933 77.6922 14.4C78.1189 14.8933 78.5322 15.4067 78.9322 15.94C79.3322 16.4733 79.6989 17.0067 80.0322 17.54C80.3655 18.0733 80.6455 18.56 80.8722 19H77.4522C77.2389 18.6533 76.9922 18.2733 76.7122 17.86C76.4455 17.4333 76.1589 17.0133 75.8522 16.6C75.5455 16.1733 75.2189 15.7667 74.8722 15.38C74.5389 14.9933 74.2055 14.6667 73.8722 14.4V19H70.8922V3.96L73.8722 3.48V12.28Z" fill="#333333"/>
<path d="M9.12506 22.1L0.700064 13.7C0.600064 13.6 0.529064 13.4917 0.487064 13.375C0.445064 13.2584 0.424398 13.1334 0.425064 13C0.425064 12.8667 0.446064 12.7417 0.488064 12.625C0.530064 12.5084 0.600731 12.4 0.700064 12.3L9.12506 3.87502C9.3584 3.64169 9.65006 3.52502 10.0001 3.52502C10.3501 3.52502 10.6501 3.65002 10.9001 3.90002C11.1501 4.15002 11.2751 4.44169 11.2751 4.77502C11.2751 5.10836 11.1501 5.40002 10.9001 5.65002L3.55006 13L10.9001 20.35C11.1334 20.5834 11.2501 20.871 11.2501 21.213C11.2501 21.555 11.1251 21.8507 10.8751 22.1C10.6251 22.35 10.3334 22.475 10.0001 22.475C9.66673 22.475 9.37506 22.35 9.12506 22.1Z" fill="#333333"/>
</svg>
