<svg width="236" height="39" viewBox="0 0 236 39" fill="none" xmlns="http://www.w3.org/2000/svg">
<path d="M54.5 28.5V11H59.5V26H69.5V28.5H54.5ZM79.5 13.5V11H84.5V13.5H79.5ZM74.5 28.5V26H79.5V18.5H77V16H84.5V26H89.5V28.5H74.5ZM92 28.5V16H107V18.5H109.5V28.5H104.5V18.5H97V28.5H92ZM112 28.5V11H117V21H122V18.5H124.5V16H129.5V18.5H127V21H124.5V23.5H127V26H129.5V28.5H124.5V26H122V23.5H117V28.5H112ZM132 28.5V11H147V13.5H149.5V21H147V23.5H137V28.5H132ZM137 21H144.5V13.5H137V21ZM159.5 13.5V11H164.5V13.5H159.5ZM154.5 28.5V26H159.5V18.5H157V16H164.5V26H169.5V28.5H154.5ZM174.5 28.5V26H179.5V13.5H177V11H184.5V26H189.5V28.5H174.5ZM194.5 28.5V26H192V18.5H194.5V16H207V18.5H209.5V26H207V28.5H194.5ZM197 26H204.5V18.5H197V26ZM219.5 28.5V18.5H214.5V16H219.5V11H224.5V16H229.5V18.5H224.5V28.5H219.5Z" fill="#FF731D"/>
<g clip-path="url(#clip0_186_585)">
<path d="M15.0417 21.375C15.4616 21.375 15.8644 21.5418 16.1613 21.8387C16.4582 22.1357 16.625 22.5384 16.625 22.9583V26.125C16.625 26.5449 16.4582 26.9477 16.1613 27.2446C15.8644 27.5415 15.4616 27.7083 15.0417 27.7083C14.6218 27.7083 14.2191 27.5415 13.9221 27.2446C13.6252 26.9477 13.4584 26.5449 13.4584 26.125V22.9583C13.4584 22.5384 13.6252 22.1357 13.9221 21.8387C14.2191 21.5418 14.6218 21.375 15.0417 21.375ZM24.5417 22.9583C24.5417 22.5384 24.3749 22.1357 24.078 21.8387C23.781 21.5418 23.3783 21.375 22.9584 21.375C22.5384 21.375 22.1357 21.5418 21.8388 21.8387C21.5419 22.1357 21.375 22.5384 21.375 22.9583V26.125C21.375 26.5449 21.5419 26.9477 21.8388 27.2446C22.1357 27.5415 22.5384 27.7083 22.9584 27.7083C23.3783 27.7083 23.781 27.5415 24.078 27.2446C24.3749 26.9477 24.5417 26.5449 24.5417 26.125V22.9583Z" fill="#FF731D"/>
<path d="M9.90098 5.94696C12.274 4.20688 15.4949 3.16663 19 3.16663C22.5051 3.16663 25.726 4.20688 28.099 5.94696C29.5399 7.00383 30.6929 8.34175 31.3757 9.87363C32.015 10.9598 32.2125 12.2249 32.1547 13.5933L33.6977 17.1661L33.8382 17.1938C34.9231 17.4107 35.8847 18.0326 36.5275 18.9331L37.4838 20.2718C37.8195 20.7417 38 21.3049 38 21.8824V25.7291C38 26.5667 37.51 27.2915 37.1062 27.7756C36.6621 28.3088 36.098 28.8111 35.5751 29.2295C35.1091 29.5999 34.6274 29.9503 34.1315 30.2796C33.9296 30.4142 33.7258 30.5452 33.5196 30.6727L33.4954 30.6873L33.4812 30.696L33.4804 30.6964L33.4709 30.7024L33.4083 30.7416C33.3553 30.7744 33.2789 30.8211 33.1803 30.8793C32.9017 31.0436 32.6194 31.2019 32.3336 31.3539C31.3359 31.8833 30.3094 32.3564 29.2588 32.771C26.6716 33.795 23.0553 34.8333 19 34.8333C14.9447 34.8333 11.3284 33.7954 8.74119 32.771C7.69062 32.3564 6.66407 31.8833 5.66635 31.3539C5.38056 31.2019 5.09813 31.0437 4.81927 30.8793C4.72182 30.8216 4.62509 30.7626 4.52913 30.7024L4.51963 30.6964L4.51883 30.696L4.50379 30.6869L4.48044 30.6727L4.34388 30.5876C4.1842 30.487 4.02586 30.3843 3.86888 30.2796C3.37283 29.9503 2.89106 29.5999 2.42488 29.2295C1.90198 28.8111 1.33792 28.3088 0.893792 27.776C0.490042 27.2911 5.91769e-10 26.5667 5.91769e-10 25.7291V21.8824C-1.19326e-05 21.3049 0.180453 20.7417 0.516167 20.2718L1.4725 18.9331C2.11542 18.0328 3.07698 17.411 4.16179 17.1942L4.30231 17.1661L5.84527 13.5933C5.78748 12.2249 5.985 10.9594 6.62427 9.87323C7.30708 8.34136 8.45975 7.00383 9.90098 5.94696ZM6.33333 18.4537V29.011C6.46238 29.0838 6.61279 29.1669 6.78379 29.258C7.70264 29.7452 8.64805 30.1807 9.61558 30.5622C12.0258 31.517 15.3366 32.4583 19 32.4583C22.6634 32.4583 25.9738 31.517 28.3844 30.5626C29.352 30.1809 30.2974 29.7454 31.2162 29.258C31.3872 29.1669 31.5376 29.0838 31.6667 29.011V18.4537L31.2776 17.5532C31.046 18.0049 30.7408 18.4149 30.3747 18.7664C29.1211 19.9603 27.2729 20.3022 24.867 20.0917C22.6274 19.8957 21.0583 18.9833 20.0783 17.5358C20.0496 17.4934 20.0214 17.4507 19.9939 17.4075C19.3313 17.4198 18.6687 17.4198 18.0061 17.4075C17.9784 17.4507 17.9503 17.4934 17.9218 17.5358C16.9417 18.9833 15.3726 19.8957 13.133 20.0917C10.7275 20.3022 8.87894 19.9603 7.62533 18.7664C7.25916 18.4148 6.95391 18.0048 6.72204 17.5532L6.33333 18.4537ZM15.9549 16.2042C16.5197 15.3698 16.7849 14.1827 16.8443 12.7106C16.9175 10.8874 16.5739 9.89817 16.0665 9.4105C15.5966 8.95965 14.6427 8.6224 12.6188 9.02219C10.564 9.42792 9.48179 10.0387 8.9106 10.7354C8.36119 11.4051 8.11023 12.3701 8.24679 13.9321C8.32556 14.833 8.45658 15.5166 8.6454 16.0364C8.7871 16.4263 8.96167 16.7243 9.17106 16.9527C9.20075 16.9852 9.23163 17.0164 9.26329 17.0465C9.74225 17.5029 10.6372 17.8671 12.5333 17.7547C12.6599 17.7471 12.7906 17.7376 12.9259 17.7258C13.6986 17.6581 14.3003 17.4871 14.7745 17.2444C15.2512 17.0054 15.6578 16.6471 15.9549 16.2042ZM22.0451 16.2042C22.3422 16.6471 22.7488 17.0054 23.2255 17.2444C23.6997 17.4871 24.3014 17.6581 25.0741 17.7258C27.2413 17.9154 28.2257 17.5334 28.7367 17.0465C28.9877 16.8074 29.1923 16.4825 29.3542 16.0368C29.5434 15.5166 29.674 14.8334 29.7532 13.9321C29.8898 12.3701 29.6388 11.4051 29.0894 10.7354C28.5182 10.0387 27.436 9.42792 25.3812 9.02219C23.3573 8.6224 22.4034 8.95965 21.9335 9.4105C21.4261 9.89817 21.0825 10.8874 21.1557 12.7106C21.2151 14.1827 21.4803 15.3698 22.0451 16.2042ZM18.3758 13.8304C18.7856 13.7278 19.2144 13.7278 19.6242 13.8304L19.648 13.8363C19.7498 13.8639 19.8572 13.8638 19.959 13.836C20.0608 13.8083 20.1533 13.7538 20.2271 13.6784C20.3011 13.6031 20.3537 13.5094 20.3794 13.407C20.4051 13.3046 20.403 13.1972 20.3733 13.0959C20.3436 12.9945 20.2874 12.903 20.2105 12.8307C20.1335 12.7583 20.0387 12.7078 19.9357 12.6844L19.912 12.6785C19.3132 12.5289 18.6868 12.5289 18.088 12.6785L18.0643 12.6844C17.9617 12.7083 17.8674 12.759 17.7909 12.8314C17.7145 12.9038 17.6587 12.9952 17.6293 13.0963C17.5999 13.1973 17.5979 13.3044 17.6235 13.4065C17.6492 13.5086 17.7016 13.602 17.7753 13.6772C17.8488 13.7525 17.9409 13.8069 18.0423 13.8348C18.1437 13.8628 18.2507 13.8633 18.3524 13.8363L18.3758 13.8304Z" fill="#FF731D"/>
</g>
<defs>
<clipPath id="clip0_186_585">
<rect width="38" height="38" fill="white"/>
</clipPath>
</defs>
</svg>
