<svg width="618" height="219" viewBox="0 0 618 219" fill="none" xmlns="http://www.w3.org/2000/svg">
<path d="M250 162V127H260V157H280V162H250ZM300 132V127H310V132H300ZM290 162V157H300V142H295V137H310V157H320V162H290ZM325 162V137H355V142H360V162H350V142H335V162H325ZM365 162V127H375V147H385V142H390V137H400V142H395V147H390V152H395V157H400V162H390V157H385V152H375V162H365ZM405 162V127H435V132H440V147H435V152H415V162H405ZM415 147H430V132H415V147ZM460 132V127H470V132H460ZM450 162V157H460V142H455V137H470V157H480V162H450ZM490 162V157H500V132H495V127H510V157H520V162H490ZM530 162V157H525V142H530V137H555V142H560V157H555V162H530ZM535 157H550V142H535V157ZM580 162V142H570V137H580V127H590V137H600V142H590V162H580Z" fill="#FF731D"/>
<g clip-path="url(#clip0_119_539)">
<path d="M86.6875 123.188C89.1076 123.188 91.4286 124.149 93.1398 125.86C94.8511 127.571 95.8125 129.892 95.8125 132.312V150.562C95.8125 152.983 94.8511 155.304 93.1398 157.015C91.4286 158.726 89.1076 159.688 86.6875 159.688C84.2674 159.688 81.9464 158.726 80.2352 157.015C78.5239 155.304 77.5625 152.983 77.5625 150.562V132.312C77.5625 129.892 78.5239 127.571 80.2352 125.86C81.9464 124.149 84.2674 123.188 86.6875 123.188ZM141.438 132.312C141.438 129.892 140.476 127.571 138.765 125.86C137.054 124.149 134.733 123.188 132.312 123.188C129.892 123.188 127.571 124.149 125.86 125.86C124.149 127.571 123.188 129.892 123.188 132.312V150.562C123.188 152.983 124.149 155.304 125.86 157.015C127.571 158.726 129.892 159.688 132.312 159.688C134.733 159.688 137.054 158.726 138.765 157.015C140.476 155.304 141.438 152.983 141.438 150.562V132.312Z" fill="#FF731D"/>
<path d="M57.0609 34.2735C70.737 24.2451 89.2995 18.25 109.5 18.25C129.7 18.25 148.263 24.2451 161.939 34.2735C170.243 40.3644 176.888 48.0751 180.823 56.9035C184.507 63.1632 185.646 70.4541 185.313 78.3404L194.205 98.931L195.015 99.0907C201.267 100.341 206.809 103.925 210.514 109.114L216.025 116.83C217.96 119.538 219 122.784 219 126.112V148.281C219 153.108 216.176 157.285 213.849 160.075C211.289 163.148 208.039 166.043 205.025 168.454C202.339 170.589 199.563 172.608 196.705 174.507C195.542 175.282 194.367 176.037 193.179 176.772L193.039 176.856L192.957 176.906L192.953 176.909L192.898 176.943L192.538 177.169C192.232 177.358 191.792 177.627 191.223 177.963C189.617 178.909 187.991 179.822 186.344 180.698C180.594 183.748 174.678 186.475 168.623 188.865C153.713 194.766 132.871 200.75 109.5 200.75C86.1286 200.75 65.2871 194.769 50.3768 188.865C44.3222 186.475 38.4061 183.748 32.6561 180.698C31.009 179.822 29.3813 178.91 27.7742 177.963C27.2126 177.63 26.6551 177.29 26.1021 176.943L26.0473 176.909L26.0428 176.906L25.9561 176.854L25.8215 176.772L25.0344 176.281C24.1142 175.702 23.2016 175.11 22.2969 174.507C19.4382 172.608 16.6617 170.589 13.9749 168.454C10.9614 166.043 7.71062 163.148 5.15106 160.078C2.82419 157.283 3.41046e-09 153.108 3.41046e-09 148.281V126.112C-6.87694e-05 122.784 1.03998 119.538 2.97475 116.83L8.48625 109.114C12.1915 103.926 17.7331 100.343 23.9851 99.0929L24.7949 98.931L33.6872 78.3404C33.3542 70.4541 34.4925 63.161 38.1767 56.9012C42.1119 48.0728 48.7549 40.3644 57.0609 34.2735ZM36.5 106.352V167.195C37.2437 167.615 38.1106 168.094 39.0961 168.619C44.3915 171.427 49.8401 173.936 55.4161 176.135C69.3067 181.638 88.387 187.062 109.5 187.062C130.613 187.062 149.691 181.638 163.584 176.138C169.16 173.938 174.608 171.428 179.904 168.619C180.889 168.094 181.756 167.615 182.5 167.195V106.352L180.258 101.162C178.923 103.765 177.164 106.128 175.054 108.154C167.829 115.034 157.178 117.005 143.313 115.792C130.405 114.662 121.362 109.404 115.714 101.062C115.549 100.818 115.387 100.571 115.228 100.323C111.409 100.393 107.591 100.393 103.772 100.323C103.612 100.571 103.45 100.818 103.286 101.062C97.6375 109.404 88.5946 114.662 75.6873 115.792C61.8242 117.005 51.1707 115.034 43.946 108.154C41.8357 106.128 40.0765 103.765 38.7402 101.162L36.5 106.352ZM91.9503 93.3875C95.2057 88.5787 96.7341 81.7372 97.0763 73.2532C97.4983 62.7458 95.5182 57.0449 92.5937 54.2344C89.8858 51.6361 84.388 49.6925 72.724 51.9965C60.882 54.3348 54.6451 57.8548 51.3532 61.8698C48.1868 65.7297 46.7405 71.2913 47.5276 80.2932C47.9815 85.4853 48.7366 89.425 49.8248 92.4203C50.6415 94.6673 51.6475 96.3851 52.8543 97.7014C53.0254 97.8884 53.2033 98.0687 53.3858 98.242C56.1461 100.872 61.304 102.971 72.2312 102.323C72.9612 102.28 73.714 102.225 74.4942 102.157C78.9472 101.767 82.4147 100.781 85.1477 99.3827C87.8949 98.0053 90.2385 95.9398 91.9503 93.3875ZM127.05 93.3875C128.761 95.9398 131.105 98.0053 133.852 99.3827C136.585 100.781 140.053 101.767 144.506 102.157C156.996 103.249 162.669 101.048 165.614 98.242C167.061 96.8642 168.24 94.9912 169.173 92.4226C170.263 89.425 171.016 85.4876 171.472 80.2932C172.259 71.2913 170.813 65.7297 167.647 61.8698C164.355 57.8548 158.118 54.3348 146.276 51.9965C134.612 49.6925 129.114 51.6361 126.406 54.2344C123.482 57.0449 121.502 62.7458 121.924 73.2532C122.266 81.7372 123.794 88.5787 127.05 93.3875ZM105.902 79.7069C108.264 79.116 110.736 79.116 113.098 79.7069L113.234 79.7411C113.821 79.9001 114.44 79.8995 115.027 79.7395C115.614 79.5795 116.147 79.2658 116.572 78.8309C116.999 78.397 117.302 77.8571 117.45 77.2669C117.598 76.6767 117.586 76.0576 117.415 75.4737C117.243 74.8898 116.919 74.3621 116.476 73.9453C116.033 73.5285 115.486 73.2376 114.893 73.1027L114.756 73.0684C111.305 72.2061 107.695 72.2061 104.244 73.0684L104.107 73.1027C103.516 73.2401 102.973 73.5324 102.532 73.9495C102.091 74.3666 101.77 74.8935 101.6 75.4761C101.431 76.0586 101.419 76.6757 101.567 77.2641C101.715 77.8525 102.017 78.3909 102.442 78.824C102.865 79.2578 103.396 79.5713 103.981 79.7324C104.565 79.8936 105.182 79.8966 105.768 79.7411L105.902 79.7069Z" fill="#FF731D"/>
</g>
<defs>
<clipPath id="clip0_119_539">
<rect width="219" height="219" fill="white"/>
</clipPath>
</defs>
</svg>
